<svg xmlns="http://www.w3.org/2000/svg" viewBox="0 0 1200 750" font-family="-apple-system,BlinkMacSystemFont,'Segoe UI',sans-serif">
  <rect width="1200" height="750" fill="#f0f0f1"/>
  <rect width="1200" height="32" fill="#1d2327"/>
  <rect x="0" y="32" width="160" height="718" fill="#1d2327"/>
  <text x="16" y="185" font-size="13" fill="#72aee6" font-weight="600">Postwave JMAP</text>

  <!-- Header -->
  <rect x="160" y="32" width="1040" height="52" fill="white"/>
  <rect x="160" y="84" width="1040" height="1" fill="#dcdcde"/>
  <rect x="180" y="44" width="28" height="28" rx="6" fill="#6366f1"/>
  <rect x="186" y="56" width="16" height="8" rx="2" fill="white" opacity="0.9"/>
  <text x="216" y="58" font-size="15" font-weight="700" fill="#1d2327">Postwave JMAP</text>
  <text x="216" y="73" font-size="11" fill="#646970">JMAP Mail for WordPress</text>
  <rect x="1090" y="50" width="82" height="22" rx="11" fill="#edfaef" stroke="#b8e6c1" stroke-width="1"/>
  <circle cx="1103" cy="61" r="4" fill="#00a32a"/>
  <text x="1112" y="65" font-size="12" font-weight="600" fill="#00a32a">Active</text>

  <!-- Nav -->
  <rect x="160" y="85" width="1040" height="44" fill="white"/>
  <rect x="160" y="129" width="1040" height="1" fill="#dcdcde"/>
  <text x="188" y="113" font-size="13" fill="#646970">General</text>
  <text x="248" y="113" font-size="13" fill="#646970">Connection</text>
  <text x="334" y="113" font-size="13" font-weight="600" fill="#6366f1">Mail Log</text>
  <rect x="394" y="106" width="18" height="14" rx="7" fill="#e5e7eb"/>
  <text x="399" y="117" font-size="10" font-weight="600" fill="#6b7280">5</text>
  <rect x="328" y="127" width="90" height="2" fill="#6366f1"/>
  <text x="1140" y="113" font-size="11" fill="#a7aaad">v1.0.0</text>

  <!-- Page title -->
  <text x="192" y="164" font-size="18" font-weight="700" fill="#1d2327">Mail Log</text>
  <text x="192" y="184" font-size="13" fill="#646970">Last 100 send attempts. Message bodies are never stored.</text>

  <!-- Stats -->
  <g transform="translate(192, 200)">
    <rect width="155" height="68" rx="8" fill="white" stroke="#dcdcde" stroke-width="1"/>
    <text x="16" y="36" font-size="24" font-weight="700" fill="#6366f1">3</text>
    <text x="16" y="54" font-size="10" font-weight="600" fill="#646970" letter-spacing="0.4">SENT TODAY</text>
    <rect x="165" width="155" height="68" rx="8" fill="white" stroke="#dcdcde" stroke-width="1"/>
    <text x="181" y="36" font-size="24" font-weight="700" fill="#d63638">0</text>
    <text x="181" y="54" font-size="10" font-weight="600" fill="#646970" letter-spacing="0.4">FAILED TODAY</text>
    <rect x="330" width="155" height="68" rx="8" fill="white" stroke="#dcdcde" stroke-width="1"/>
    <text x="346" y="36" font-size="24" font-weight="700" fill="#6366f1">18</text>
    <text x="346" y="54" font-size="10" font-weight="600" fill="#646970" letter-spacing="0.4">SENT THIS WEEK</text>
    <rect x="495" width="155" height="68" rx="8" fill="white" stroke="#dcdcde" stroke-width="1"/>
    <text x="511" y="36" font-size="24" font-weight="700" fill="#d63638">1</text>
    <text x="511" y="54" font-size="10" font-weight="600" fill="#646970" letter-spacing="0.4">FAILED THIS WEEK</text>
    <rect x="660" width="155" height="68" rx="8" fill="white" stroke="#dcdcde" stroke-width="1"/>
    <text x="676" y="36" font-size="24" font-weight="700" fill="#3c434a">47</text>
    <text x="676" y="54" font-size="10" font-weight="600" fill="#646970" letter-spacing="0.4">TOTAL LOGGED</text>
  </g>

  <!-- Log table -->
  <rect x="192" y="290" width="820" height="420" rx="8" fill="white" stroke="#dcdcde" stroke-width="1"/>
  <!-- Table header -->
  <rect x="192" y="290" width="820" height="36" rx="8 8 0 0" fill="#f9fafb"/>
  <rect x="192" y="326" width="820" height="1" fill="#dcdcde"/>
  <text x="216" y="314" font-size="11" font-weight="600" fill="#646970" letter-spacing="0.5">STATUS</text>
  <text x="290" y="314" font-size="11" font-weight="600" fill="#646970" letter-spacing="0.5">DATE / TIME</text>
  <text x="430" y="314" font-size="11" font-weight="600" fill="#646970" letter-spacing="0.5">TO</text>
  <text x="620" y="314" font-size="11" font-weight="600" fill="#646970" letter-spacing="0.5">SUBJECT</text>
  <text x="880" y="314" font-size="11" font-weight="600" fill="#646970" letter-spacing="0.5">DETAILS</text>

  <!-- Row 1 - sent -->
  <rect x="216" y="336" width="58" height="18" rx="9" fill="#edfaef"/>
  <text x="229" y="349" font-size="11" font-weight="600" fill="#00a32a">Sent</text>
  <text x="290" y="350" font-size="12" fill="#646970" font-family="monospace">2026-06-19 14:22</text>
  <text x="430" y="350" font-size="13" fill="#1d2327">customer@example.com</text>
  <text x="620" y="350" font-size="13" fill="#1d2327">New order #4821</text>
  <rect x="880" y="336" width="64" height="20" rx="3" fill="white" stroke="#dcdcde" stroke-width="1"/>
  <text x="891" y="350" font-size="11" fill="#646970">Details ▾</text>
  <rect x="192" y="360" width="820" height="1" fill="#f0f0f1"/>

  <!-- Row 2 - sent -->
  <rect x="216" y="370" width="58" height="18" rx="9" fill="#edfaef"/>
  <text x="229" y="383" font-size="11" font-weight="600" fill="#00a32a">Sent</text>
  <text x="290" y="384" font-size="12" fill="#646970" font-family="monospace">2026-06-19 13:05</text>
  <text x="430" y="384" font-size="13" fill="#1d2327">john@example.org</text>
  <text x="620" y="384" font-size="13" fill="#1d2327">Your password has been reset</text>
  <rect x="880" y="370" width="64" height="20" rx="3" fill="white" stroke="#dcdcde" stroke-width="1"/>
  <text x="891" y="384" font-size="11" fill="#646970">Details ▾</text>
  <rect x="192" y="394" width="820" height="1" fill="#f0f0f1"/>

  <!-- Row 3 - failed (expanded) -->
  <rect x="192" y="395" width="820" height="1" fill="#f0f0f1"/>
  <rect x="216" y="404" width="58" height="18" rx="9" fill="#fef2f2"/>
  <text x="224" y="417" font-size="11" font-weight="600" fill="#d63638">Failed</text>
  <text x="290" y="418" font-size="12" fill="#646970" font-family="monospace">2026-06-18 09:41</text>
  <text x="430" y="418" font-size="13" fill="#1d2327">admin@example.com</text>
  <text x="620" y="418" font-size="13" fill="#1d2327">Weekly newsletter</text>
  <rect x="880" y="404" width="64" height="20" rx="3" fill="white" stroke="#dcdcde" stroke-width="1"/>
  <text x="891" y="418" font-size="11" fill="#646970">Details ▴</text>
  <!-- Expanded detail -->
  <rect x="216" y="428" width="768" height="70" rx="4" fill="#f9fafb" stroke="#dcdcde" stroke-width="1"/>
  <text x="232" y="448" font-size="10" font-weight="600" fill="#646970" letter-spacing="0.3">FROM</text>
  <text x="290" y="448" font-size="12" fill="#1d2327" font-family="monospace">info@tahhan.nl</text>
  <text x="232" y="466" font-size="10" font-weight="600" fill="#646970" letter-spacing="0.3">ERROR</text>
  <text x="290" y="466" font-size="12" fill="#d63638">Identity not found for from_email — using first available identity</text>
  <text x="232" y="484" font-size="10" font-weight="600" fill="#646970" letter-spacing="0.3">ACCOUNT</text>
  <text x="290" y="484" font-size="12" fill="#1d2327" font-family="monospace">acc-7f3a9b2c</text>

  <!-- Row 4 -->
  <rect x="192" y="502" width="820" height="1" fill="#f0f0f1"/>
  <rect x="216" y="512" width="58" height="18" rx="9" fill="#edfaef"/>
  <text x="229" y="525" font-size="11" font-weight="600" fill="#00a32a">Sent</text>
  <text x="290" y="526" font-size="12" fill="#646970" font-family="monospace">2026-06-17 16:30</text>
  <text x="430" y="526" font-size="13" fill="#1d2327">user@domain.nl</text>
  <text x="620" y="526" font-size="13" fill="#1d2327">Account activation</text>
  <rect x="880" y="512" width="64" height="20" rx="3" fill="white" stroke="#dcdcde" stroke-width="1"/>
  <text x="891" y="526" font-size="11" fill="#646970">Details ▾</text>

  <!-- Row 5 -->
  <rect x="192" y="536" width="820" height="1" fill="#f0f0f1"/>
  <rect x="216" y="546" width="58" height="18" rx="9" fill="#edfaef"/>
  <text x="229" y="559" font-size="11" font-weight="600" fill="#00a32a">Sent</text>
  <text x="290" y="560" font-size="12" fill="#646970" font-family="monospace">2026-06-17 11:12</text>
  <text x="430" y="560" font-size="13" fill="#1d2327">support@client.com</text>
  <text x="620" y="560" font-size="13" fill="#1d2327">Support ticket opened</text>
  <rect x="880" y="546" width="64" height="20" rx="3" fill="white" stroke="#dcdcde" stroke-width="1"/>
  <text x="891" y="560" font-size="11" fill="#646970">Details ▾</text>
</svg>
