<svg xmlns="http://www.w3.org/2000/svg" viewBox="0 0 1200 750" font-family="-apple-system,BlinkMacSystemFont,'Segoe UI',sans-serif">
  <rect width="1200" height="750" fill="#f0f0f1"/>
  <rect width="1200" height="32" fill="#1d2327"/>
  <rect x="0" y="32" width="160" height="718" fill="#1d2327"/>
  <text x="16" y="185" font-size="13" fill="#72aee6" font-weight="600">Postwave JMAP</text>

  <!-- Header -->
  <rect x="160" y="32" width="1040" height="52" fill="white"/>
  <rect x="160" y="84" width="1040" height="1" fill="#dcdcde"/>
  <rect x="180" y="44" width="28" height="28" rx="6" fill="#6366f1"/>
  <text x="216" y="64" font-size="15" font-weight="700" fill="#1d2327">Postwave JMAP</text>
  <rect x="1090" y="50" width="82" height="22" rx="11" fill="#edfaef" stroke="#b8e6c1" stroke-width="1"/>
  <circle cx="1103" cy="61" r="4" fill="#00a32a"/>
  <text x="1112" y="65" font-size="12" font-weight="600" fill="#00a32a">Active</text>

  <!-- Nav - Connection active -->
  <rect x="160" y="85" width="1040" height="44" fill="white"/>
  <rect x="160" y="129" width="1040" height="1" fill="#dcdcde"/>
  <text x="188" y="113" font-size="13" fill="#646970">General</text>
  <text x="248" y="113" font-size="13" font-weight="600" fill="#6366f1">Connection</text>
  <rect x="242" y="127" width="74" height="2" fill="#6366f1"/>
  <text x="334" y="113" font-size="13" fill="#646970">Mail Log</text>

  <!-- Page title -->
  <text x="192" y="164" font-size="18" font-weight="700" fill="#1d2327">Connection</text>

  <!-- Stats -->
  <g transform="translate(192, 184)">
    <rect width="155" height="68" rx="8" fill="white" stroke="#dcdcde" stroke-width="1"/>
    <text x="16" y="36" font-size="24" font-weight="700" fill="#6366f1">3</text>
    <text x="16" y="54" font-size="10" font-weight="600" fill="#646970" letter-spacing="0.4">SENT TODAY</text>
    <rect x="165" width="155" height="68" rx="8" fill="white" stroke="#dcdcde" stroke-width="1"/>
    <text x="181" y="36" font-size="24" font-weight="700" fill="#d63638">0</text>
    <text x="181" y="54" font-size="10" font-weight="600" fill="#646970" letter-spacing="0.4">FAILED TODAY</text>
    <rect x="330" width="155" height="68" rx="8" fill="white" stroke="#dcdcde" stroke-width="1"/>
    <text x="346" y="36" font-size="24" font-weight="700" fill="#6366f1">18</text>
    <text x="346" y="54" font-size="10" font-weight="600" fill="#646970" letter-spacing="0.4">SENT THIS WEEK</text>
    <rect x="495" width="155" height="68" rx="8" fill="white" stroke="#dcdcde" stroke-width="1"/>
    <text x="511" y="36" font-size="24" font-weight="700" fill="#d63638">1</text>
    <text x="511" y="54" font-size="10" font-weight="600" fill="#646970" letter-spacing="0.4">FAILED THIS WEEK</text>
    <rect x="660" width="155" height="68" rx="8" fill="white" stroke="#dcdcde" stroke-width="1"/>
    <text x="676" y="36" font-size="24" font-weight="700" fill="#3c434a">47</text>
    <text x="676" y="54" font-size="10" font-weight="600" fill="#646970" letter-spacing="0.4">TOTAL LOGGED</text>
  </g>

  <!-- Test connection result -->
  <rect x="192" y="274" width="820" height="200" rx="8" fill="#f9fafb" stroke="#dcdcde" stroke-width="1"/>
  <text x="216" y="304" font-size="14" font-weight="700" fill="#2c3338">Test Connection</text>

  <rect x="216" y="318" width="140" height="36" rx="4" fill="white" stroke="#dcdcde" stroke-width="1" opacity="0.6"/>
  <text x="250" y="341" font-size="13" fill="#a7aaad">→ Test connection</text>
  <rect x="370" y="318" width="155" height="36" rx="4" fill="white" stroke="#dcdcde" stroke-width="1" opacity="0.6"/>
  <text x="394" y="341" font-size="13" fill="#a7aaad">✉ Send test email</text>

  <!-- All steps done -->
  <rect x="216" y="366" width="780" height="34" rx="4" fill="white" stroke="#dcdcde" stroke-width="1"/>
  <circle cx="234" cy="383" r="10" fill="#edfaef"/>
  <text x="228.5" y="387" font-size="11" font-weight="700" fill="#00a32a">✓</text>
  <text x="252" y="387" font-size="13" fill="#1d2327">Discovering JMAP session…</text>

  <rect x="216" y="406" width="780" height="34" rx="4" fill="white" stroke="#dcdcde" stroke-width="1"/>
  <circle cx="234" cy="423" r="10" fill="#edfaef"/>
  <text x="228.5" y="427" font-size="11" font-weight="700" fill="#00a32a">✓</text>
  <text x="252" y="427" font-size="13" fill="#1d2327">Resolving sender identity…</text>

  <rect x="216" y="446" width="780" height="34" rx="4" fill="white" stroke="#dcdcde" stroke-width="1"/>
  <circle cx="234" cy="463" r="10" fill="#edfaef"/>
  <text x="228.5" y="467" font-size="11" font-weight="700" fill="#00a32a">✓</text>
  <text x="252" y="467" font-size="13" fill="#1d2327">Verifying capabilities…</text>

  <!-- Success result card -->
  <rect x="192" y="488" width="820" height="180" rx="8" fill="#edfaef" stroke="#b8e6c1" stroke-width="1"/>
  <text x="216" y="516" font-size="14" font-weight="600" fill="#00a32a">Connection successful!</text>
  <!-- Details -->
  <text x="216" y="540" font-size="11" font-weight="600" fill="#646970" letter-spacing="0.4">ACCOUNT</text>
  <text x="296" y="540" font-size="12" fill="#1d2327" font-family="monospace">acc-7f3a9b2c1d4e5f6a</text>
  <text x="216" y="562" font-size="11" font-weight="600" fill="#646970" letter-spacing="0.4">IDENTITY</text>
  <text x="296" y="562" font-size="12" fill="#1d2327">Tahhan Web Experts &lt;info@tahhan.nl&gt; (ID: id-4b8c2)</text>
  <text x="216" y="584" font-size="11" font-weight="600" fill="#646970" letter-spacing="0.4">CAPABILITIES</text>
  <text x="296" y="584" font-size="11" fill="#646970">8 capabilities detected</text>
  <!-- Capability pills -->
  <rect x="216" y="592" width="170" height="18" rx="9" fill="rgba(0,0,0,0.06)"/>
  <text x="224" y="605" font-size="11" fill="#2c3338" font-family="monospace">urn:ietf:params:jmap:core</text>
  <rect x="396" y="592" width="170" height="18" rx="9" fill="rgba(0,0,0,0.06)"/>
  <text x="404" y="605" font-size="11" fill="#2c3338" font-family="monospace">urn:ietf:params:jmap:mail</text>
  <rect x="576" y="592" width="198" height="18" rx="9" fill="rgba(0,0,0,0.06)"/>
  <text x="584" y="605" font-size="11" fill="#2c3338" font-family="monospace">urn:ietf:params:jmap:submission</text>
  <text x="216" y="630" font-size="11" font-weight="600" fill="#646970" letter-spacing="0.4">TESTED AT</text>
  <text x="296" y="630" font-size="12" fill="#1d2327" font-family="monospace">2026-06-19 14:38:22</text>
</svg>
